# xmcd
#
# Track frame offsets: 
#        150
#        25112
#        52503
#        91227
#        129284
#        181534
#        214684
#
# Disc length: 3266 seconds
#
# Revision: 0
# Processed by: cddbd v1.4PL0 Copyright (c) Steve Scherf et al.
# Submitted via: ExactAudioCopy v0.90b4
#
DISCID=440cc007
DTITLE=Marty Sammon Band - Live
DYEAR=2002
DGENRE=Blues
TTITLE0=I Don't Believe You, Baby
TTITLE1=Chicken Heads
TTITLE2=None Pound Steel
TTITLE3=Real Mutha for Ya
TTITLE4=Hey Pocky Way
TTITLE5=Call My Job
TTITLE6=On Broadway
EXTD=
EXTT0=
EXTT1=
EXTT2=
EXTT3=
EXTT4=
EXTT5=
EXTT6=
PLAYORDER=
